<?xml version="1.0" standalone="no"?><!-- Generator: Gravit.io --><svg xmlns="http://www.w3.org/2000/svg" xmlns:xlink="http://www.w3.org/1999/xlink" style="isolation:isolate" viewBox="0 0 1920 1080" width="1920" height="1080"><defs><clipPath id="_clipPath_NpJdpwHyfbaSHJ2s7yZfqE0fvfOiiZOH"><rect width="1920" height="1080"/></clipPath></defs><g clip-path="url(#_clipPath_NpJdpwHyfbaSHJ2s7yZfqE0fvfOiiZOH)"><rect x="0" y="-1.006" width="1920" height="835" transform="matrix(1,0,0,1,0,0)" fill="rgb(77,187,255)"/><path d=" M 98.285 419.775 L 177.529 555.834 L 338 835 L 16 834.389 L 16 451.246 L 98.285 419.775 L 98.285 419.775 Z " fill="rgb(55,142,195)"/><path d=" M 98.285 419.775 L 16 278.493 L 16 451.246 L 98.285 419.775 L 98.285 419.775 Z " fill="rgb(162,205,232)"/><path d=" M 16 453.387 L 16 835 L -306 834.39 L -144.471 555.835 L -70.216 427.783 L 16 453.387 Z " fill="rgb(61,158,219)"/><path d=" M 16 452.776 L 16 278.493 L 17.058 276.669 L -70.216 427.172 L 16 452.776 L 16 452.776 Z " fill="rgb(173,220,249)"/><path d=" M 1545.045 449.463 L 1545.045 278.493 L 1627.413 421.696 L 1545.045 449.463 Z " fill="rgb(162,205,232)"/><path d=" M 1544 449.463 L 1544 834.389 L 1863.045 835 L 1704.046 555.834 L 1626.639 421.696 L 1544 449.463 Z " fill="rgb(55,142,195)"/><path d=" M 1544 450.133 L 1544 834.389 L 1226 833.779 L 1385.522 555.224 L 1463.53 419.008 L 1544 450.133 Z " fill="rgb(61,158,219)"/><path d=" M 1544 450.133 L 1544 278.493 L 1545.045 276.669 L 1463.53 419.008 L 1544 450.133 Z " fill="rgb(173,220,249)"/><path d=" M 1044 474.493 L 1044 338.627 L 1110.353 445.555 L 1044 474.493 Z " fill="rgb(162,205,232)"/><path d=" M 1044 474.493 L 1044 834.455 L 1350 835 L 1197.503 586 L 1110.353 445.555 L 1044 474.493 Z " fill="rgb(55,142,195)"/><path d=" M 1044 475.779 L 1044 834.455 L 738 833.911 L 891.503 585.455 L 970.787 457.128 L 1044 475.779 Z " fill="rgb(61,158,219)"/><path d=" M 1044 475.779 L 1044 338.627 L 1045.005 337 L 970.787 457.128 L 1044 475.779 Z " fill="rgb(173,220,249)"/><path d=" M 1964.608 501.618 L 1962.124 834.448 L 1660 833.911 L 1813.503 585.455 L 1883.837 471.615 L 1964.608 501.618 Z " fill="rgb(61,158,219)"/><path d=" M 1964.608 501.618 L 1965.822 338.916 L 1883.837 471.615 L 1964.608 501.618 Z " fill="rgb(173,220,249)"/><path d=" M 577.37 220 L 577.37 220 L 577.37 834.33 L 577.37 220 L 577.37 220 Z " fill="rgb(61,158,219)"/><path d=" M 533.5 389.153 L 533.5 186.525 L 633.095 357.768 L 533.5 389.153 Z " fill="rgb(162,205,232)"/><path d=" M 533.5 389.153 L 533.5 833.399 L 908 833.994 L 721.265 509.37 L 633.095 357.768 L 533.5 389.153 Z " fill="rgb(55,142,195)"/><path d=" M 533.5 388.836 L 533.5 833.399 L 159 832.804 L 346.765 508.775 L 437.507 352.18 L 533.5 388.836 Z " fill="rgb(61,158,219)"/><path d=" M 533.5 388.836 L 533.5 186.525 L 534.531 184.746 L 437.507 352.18 L 533.5 388.836 Z " fill="rgb(173,220,249)"/><path d=" M 915.47 901.668 C 915.47 803.244 1012.823 723.336 1132.735 723.336 C 1252.647 723.336 1350 803.244 1350 901.668 C 1350 1000.092 1252.647 1080 1132.735 1080 C 1012.823 1080 915.47 1000.092 915.47 901.668 Z " fill="rgb(50,185,133)"/><path d=" M 1192.883 966.332 C 1192.883 867.908 1290.236 788 1410.148 788 C 1530.06 788 1627.413 867.908 1627.413 966.332 C 1627.413 1064.756 1530.06 1144.664 1410.148 1144.664 C 1290.236 1144.664 1192.883 1064.756 1192.883 966.332 Z " fill="rgb(47,168,122)"/><path d=" M 583.297 939.332 C 583.297 840.908 683.945 761 807.914 761 C 931.883 761 1032.53 840.908 1032.53 939.332 C 1032.53 1037.756 931.883 1117.664 807.914 1117.664 C 683.945 1117.664 583.297 1037.756 583.297 939.332 Z " fill="rgb(47,168,122)"/><path d=" M 274.408 965.345 C 274.408 859.904 371.761 774.298 491.673 774.298 C 611.585 774.298 708.938 859.904 708.938 965.345 C 708.938 1070.787 611.585 1156.392 491.673 1156.392 C 371.761 1156.392 274.408 1070.787 274.408 965.345 Z " fill="rgb(50,185,133)"/><path d=" M 57.143 901.668 C 57.143 803.244 154.496 723.336 274.408 723.336 C 394.319 723.336 491.673 803.244 491.673 901.668 C 491.673 1000.092 394.319 1080 274.408 1080 C 154.496 1080 57.143 1000.092 57.143 901.668 Z " fill="rgb(47,168,122)"/><path d=" M -127.265 952.63 C -127.265 854.206 -29.912 774.298 90 774.298 C 209.912 774.298 307.265 854.206 307.265 952.63 C 307.265 1051.054 209.912 1130.962 90 1130.962 C -29.912 1130.962 -127.265 1051.054 -127.265 952.63 Z " fill="rgb(50,185,133)"/><path d=" M 1449.306 962.549 C 1449.306 864.125 1546.66 784.217 1666.571 784.217 C 1786.483 784.217 1883.837 864.125 1883.837 962.549 C 1883.837 1060.973 1786.483 1140.881 1666.571 1140.881 C 1546.66 1140.881 1449.306 1060.973 1449.306 962.549 Z " fill="rgb(50,185,133)"/><path d=" M 1703.523 916.115 C 1703.523 817.691 1800.876 737.783 1920.788 737.783 C 2040.699 737.783 2138.053 817.691 2138.053 916.115 C 2138.053 1014.539 2040.699 1094.447 1920.788 1094.447 C 1800.876 1094.447 1703.523 1014.539 1703.523 916.115 Z " fill="rgb(47,168,122)"/><path d=" M 1703.523 93.943 C 1703.523 16.086 1769.099 -47.123 1849.871 -47.123 C 1930.642 -47.123 1996.219 16.086 1996.219 93.943 C 1996.219 171.799 1930.642 235.008 1849.871 235.008 C 1769.099 235.008 1703.523 171.799 1703.523 93.943 Z " fill="rgb(226,230,151)"/><rect x="0" y="901.668" width="1920" height="178.332" transform="matrix(1,0,0,1,0,0)" fill="rgb(48,174,90)"/><g style="mix-blend-mode:normal;" opacity="0.97"><path d="M 683.357 219.397 L 757.651 219.397 C 785.392 219.397 807.914 241.919 807.914 269.66 L 807.914 269.66 C 807.914 297.4 785.392 319.922 757.651 319.922 L 683.357 319.922 C 655.616 319.922 633.095 297.4 633.095 269.66 L 633.095 269.66 C 633.095 241.919 655.616 219.397 683.357 219.397 Z" style="stroke:none;fill:#EBEBEB;stroke-miterlimit:10;"/></g><g style="mix-blend-mode:normal;" opacity="0.97"><path d="M 161.973 35.738 L 236.268 35.738 C 264.008 35.738 286.53 58.259 286.53 86 L 286.53 86 C 286.53 113.741 264.008 136.262 236.268 136.262 L 161.973 136.262 C 134.233 136.262 111.711 113.741 111.711 86 L 111.711 86 C 111.711 58.259 134.233 35.738 161.973 35.738 Z" style="stroke:none;fill:#F4F4F4;stroke-miterlimit:10;"/></g><g style="mix-blend-mode:normal;" opacity="0.97"><path d="M 1160.615 13.607 L 1234.909 13.607 C 1262.65 13.607 1285.172 36.128 1285.172 63.869 L 1285.172 63.869 C 1285.172 91.609 1262.65 114.131 1234.909 114.131 L 1160.615 114.131 C 1132.874 114.131 1110.353 91.609 1110.353 63.869 L 1110.353 63.869 C 1110.353 36.128 1132.874 13.607 1160.615 13.607 Z" style="stroke:none;fill:#F7F7F7;stroke-miterlimit:10;"/></g><g style="mix-blend-mode:normal;" opacity="0.97"><path d="M 1738.488 134.484 L 1812.783 134.484 C 1840.523 134.484 1863.045 157.005 1863.045 184.746 L 1863.045 184.746 C 1863.045 212.486 1840.523 235.008 1812.783 235.008 L 1738.488 235.008 C 1710.748 235.008 1688.226 212.486 1688.226 184.746 L 1688.226 184.746 C 1688.226 157.005 1710.748 134.484 1738.488 134.484 Z" style="stroke:none;fill:#EBEBEB;stroke-miterlimit:10;"/></g><g style="mix-blend-mode:normal;" opacity="0.97"><path d="M 735.262 269.66 L 809.557 269.66 C 837.297 269.66 859.819 292.181 859.819 319.922 L 859.819 319.922 C 859.819 347.662 837.297 370.184 809.557 370.184 L 735.262 370.184 C 707.522 370.184 685 347.662 685 319.922 L 685 319.922 C 685 292.181 707.522 269.66 735.262 269.66 Z" style="stroke:none;fill:#DFDCDC;stroke-miterlimit:10;"/></g><g style="mix-blend-mode:normal;" opacity="0.97"><path d="M 809.262 203.397 L 883.557 203.397 C 911.297 203.397 933.819 225.919 933.819 253.66 L 933.819 253.66 C 933.819 281.4 911.297 303.922 883.557 303.922 L 809.262 303.922 C 781.522 303.922 759 281.4 759 253.66 L 759 253.66 C 759 225.919 781.522 203.397 809.262 203.397 Z" style="stroke:none;fill:#EBEBEB;stroke-miterlimit:10;"/></g><g style="mix-blend-mode:normal;" opacity="0.97"><path d="M 213.443 120.262 L 287.738 120.262 C 315.478 120.262 338 142.784 338 170.525 L 338 170.525 C 338 198.265 315.478 220.787 287.738 220.787 L 213.443 220.787 C 185.703 220.787 163.181 198.265 163.181 170.525 L 163.181 170.525 C 163.181 142.784 185.703 120.262 213.443 120.262 Z" style="stroke:none;fill:#FAFDFF;stroke-miterlimit:10;"/></g><g style="mix-blend-mode:normal;" opacity="0.97"><path d="M 300.853 70 L 375.147 70 C 402.888 70 425.41 92.522 425.41 120.262 L 425.41 120.262 C 425.41 148.003 402.888 170.525 375.147 170.525 L 300.853 170.525 C 273.112 170.525 250.59 148.003 250.59 120.262 L 250.59 120.262 C 250.59 92.522 273.112 70 300.853 70 Z" style="stroke:none;fill:#FFFFFF;stroke-miterlimit:10;"/></g><g style="mix-blend-mode:normal;" opacity="0.97"><path d="M 1651.079 187.314 L 1725.373 187.314 C 1753.114 187.314 1775.635 209.836 1775.635 237.577 L 1775.635 237.577 C 1775.635 265.317 1753.114 287.839 1725.373 287.839 L 1651.079 287.839 C 1623.338 287.839 1600.816 265.317 1600.816 237.577 L 1600.816 237.577 C 1600.816 209.836 1623.338 187.314 1651.079 187.314 Z" style="stroke:none;fill:#EBEBEB;stroke-miterlimit:10;"/></g><g style="mix-blend-mode:normal;" opacity="0.97"><path d="M 1607.262 108 L 1681.557 108 C 1709.297 108 1731.819 130.522 1731.819 158.262 L 1731.819 158.262 C 1731.819 186.003 1709.297 208.525 1681.557 208.525 L 1607.262 208.525 C 1579.522 208.525 1557 186.003 1557 158.262 L 1557 158.262 C 1557 130.522 1579.522 108 1607.262 108 Z" style="stroke:none;fill:#E3E3E3;stroke-miterlimit:10;"/></g><g style="mix-blend-mode:normal;" opacity="0.97"><path d="M 1248.024 101.869 L 1322.319 101.869 C 1350.059 101.869 1372.581 124.391 1372.581 152.131 L 1372.581 152.131 C 1372.581 179.872 1350.059 202.393 1322.319 202.393 L 1248.024 202.393 C 1220.284 202.393 1197.762 179.872 1197.762 152.131 L 1197.762 152.131 C 1197.762 124.391 1220.284 101.869 1248.024 101.869 Z" style="stroke:none;fill:#EBEBEB;stroke-miterlimit:10;"/></g><g style="mix-blend-mode:normal;" opacity="0.97"><path d="M 1293.619 30.396 L 1367.914 30.396 C 1395.654 30.396 1418.176 52.918 1418.176 80.659 L 1418.176 80.659 C 1418.176 108.399 1395.654 130.921 1367.914 130.921 L 1293.619 130.921 C 1265.879 130.921 1243.357 108.399 1243.357 80.659 L 1243.357 80.659 C 1243.357 52.918 1265.879 30.396 1293.619 30.396 Z" style="stroke:none;fill:#EBEBEB;stroke-miterlimit:10;"/></g><polygon points="612.591,429.515,533.5,386.261,616,348.156" fill="rgb(162,205,232)"/><polygon points="87.273,486.235,24,442.981,90,404.876" fill="rgb(162,205,232)"/><polygon points="1103.847,515.172,1044,471.919,1106.426,433.814" fill="rgb(162,205,232)"/><polygon points="1608.746,497.998,1539.079,440.606,1627.413,418.737" fill="rgb(162,205,232)"/><polygon points="525.712,382.26,469.534,418.737,446.326,352.18" fill="rgb(173,220,249)"/><polygon points="1044,467.312,1001.123,509.782,995.717,451.246" fill="rgb(173,220,249)"/><polygon points="1545.39,444.773,1490.921,482.02,1470,416.494" fill="rgb(173,220,249)"/></g></svg>
